<svg width="100" height="136" viewBox="0 0 100 136" fill="none" xmlns="http://www.w3.org/2000/svg">
<g filter="url(#filter0_d)">
<path d="M85 48.6111C85 71.5923 43 114 43 114C43 114 1 71.5923 1 48.6111C1 25.6299 19.804 7 43 7C66.196 7 85 25.6299 85 48.6111Z" fill="#FCFCFC"/>
<g clip-path="url(#clip0)">
<path d="M66.3759 70.1956L63.0017 39.705C62.9487 28.8254 54.2798 19.9915 43.6319 19.9915C32.984 19.9915 24.3152 28.826 24.2627 39.705L20.8879 70.1956C20.8315 70.7057 20.9991 71.2153 21.346 71.5863C21.693 71.958 22.1844 72.1559 22.6831 72.1178C22.7181 72.1155 26.169 71.8812 29.277 71.8812C31.4676 71.8812 32.5564 71.9966 33.0845 72.0942C35.7281 72.5801 40.8884 76.0056 42.6537 77.285C42.947 77.4968 43.2895 77.6035 43.6319 77.6035C43.9749 77.6035 44.3191 77.4962 44.6124 77.2827C46.3224 76.0391 51.3282 72.6983 53.9193 72.1859C54.5156 72.0682 55.7771 71.928 58.4033 71.928C61.4243 71.928 64.5622 72.1167 64.5932 72.119C65.0891 72.1426 65.5776 71.9522 65.9218 71.5817C66.2659 71.2112 66.4323 70.7034 66.3759 70.1956ZM58.4033 68.4655C56.0468 68.4655 54.3707 68.5705 53.2768 68.7869C50.2416 69.3871 45.6674 72.3636 43.6297 73.77C41.5434 72.3354 36.7989 69.2595 33.6825 68.6859C32.7036 68.5059 31.2622 68.4187 29.2758 68.4187C27.5631 68.4187 25.7865 68.4845 24.4754 68.5486L27.6358 39.9999C27.6432 39.9353 27.6465 39.8701 27.6465 39.8054C27.6465 30.7892 34.817 23.4545 43.6314 23.4545C52.4452 23.4545 59.6162 30.7892 59.6162 39.8054C59.6162 39.8707 59.6201 39.9359 59.6269 39.9999L62.7884 68.5642C61.5902 68.5145 59.9953 68.4655 58.4033 68.4655Z" fill="#080029"/>
<path d="M33.4773 41.9429C35.152 41.9429 36.5096 40.5542 36.5096 38.8411C36.5096 37.128 35.152 35.7393 33.4773 35.7393C31.8026 35.7393 30.4449 37.128 30.4449 38.8411C30.4449 40.5542 31.8026 41.9429 33.4773 41.9429Z" fill="#080029"/>
<path d="M53.7871 41.9429C55.4618 41.9429 56.8194 40.5542 56.8194 38.8411C56.8194 37.128 55.4618 35.7393 53.7871 35.7393C52.1124 35.7393 50.7548 37.128 50.7548 38.8411C50.7548 40.5542 52.1124 41.9429 53.7871 41.9429Z" fill="#080029"/>
<path d="M43.6319 63.3186L51.1849 43.3119H36.0779L43.6319 63.3186ZM43.6319 53.7079L41.0143 46.7743H46.2496L43.6319 53.7079Z" fill="#080029"/>
</g>
</g>
<defs>
<filter id="filter0_d" x="-12.5048" y="0.569131" width="112.296" height="135.296" filterUnits="userSpaceOnUse" color-interpolation-filters="sRGB">
<feFlood flood-opacity="0" result="BackgroundImageFix"/>
<feColorMatrix in="SourceAlpha" type="matrix" values="0 0 0 0 0 0 0 0 0 0 0 0 0 0 0 0 0 0 127 0"/>
<feOffset dx="0.643087" dy="7.71704"/>
<feGaussianBlur stdDeviation="7.07396"/>
<feColorMatrix type="matrix" values="0 0 0 0 0 0 0 0 0 0 0 0 0 0 0 0 0 0 0.09 0"/>
<feBlend mode="normal" in2="BackgroundImageFix" result="effect1_dropShadow"/>
<feBlend mode="normal" in="SourceGraphic" in2="effect1_dropShadow" result="shape"/>
</filter>
<clipPath id="clip0">
<rect width="46.2609" height="57.7079" fill="white" transform="translate(20.4784 19.9436)"/>
</clipPath>
</defs>
</svg>
