<svg width="144" height="53" viewBox="0 0 144 53" fill="none" xmlns="http://www.w3.org/2000/svg">
<path d="M71.7226 16.2359L78.5703 15.7994C78.7197 16.9298 79.0218 17.7905 79.4768 18.3812C80.22 19.3389 81.2792 19.8177 82.6545 19.8177C83.6807 19.8177 84.4725 19.5734 85.0299 19.0849C85.2852 18.8821 85.4925 18.6238 85.6368 18.329C85.781 18.0343 85.8584 17.7104 85.8634 17.3813C85.8592 17.0658 85.7871 16.755 85.6521 16.4708C85.5171 16.1865 85.3225 15.9357 85.082 15.7359C84.5611 15.2527 83.3326 14.7951 81.3964 14.363C78.2395 13.6435 75.9882 12.6859 74.6425 11.4902C73.9876 10.9331 73.4647 10.2334 73.1125 9.44294C72.7603 8.65252 72.588 7.79169 72.6082 6.92435C72.6132 5.69866 72.9757 4.50196 73.6501 3.48543C74.4202 2.33972 75.5081 1.45216 76.7757 0.935344C78.1649 0.316339 80.075 0.00683594 82.506 0.00683594C85.4823 0.00683594 87.7518 0.569408 89.3146 1.69455C90.8774 2.8197 91.8073 4.60793 92.1043 7.05927L85.3191 7.46135C85.1454 6.40323 84.7669 5.62903 84.1834 5.13876C83.6 4.64849 82.8012 4.40424 81.7871 4.40601C80.951 4.40601 80.3207 4.58853 79.8987 4.9483C79.6994 5.10395 79.5383 5.30437 79.428 5.53385C79.3178 5.76332 79.2613 6.01562 79.2632 6.27096C79.2695 6.4691 79.3196 6.66327 79.4098 6.8391C79.4999 7.01493 79.6279 7.16792 79.7841 7.28676C80.1227 7.59891 80.9276 7.8899 82.1986 8.15972C85.3451 8.8475 87.6025 9.54411 88.9708 10.2495C90.3391 10.9549 91.3289 11.8288 91.9402 12.871C92.564 13.9283 92.8859 15.141 92.87 16.3734C92.8775 17.8658 92.4468 19.3265 91.6328 20.5689C90.7856 21.8644 89.5804 22.8767 88.1686 23.4788C86.6839 24.1401 84.8137 24.4708 82.5581 24.4708C78.5972 24.4708 75.8536 23.6966 74.3273 22.1482C72.8009 20.5998 71.9327 18.629 71.7226 16.2359ZM1.63314 24.074V0.40628H13.6303C15.8547 0.40628 17.5547 0.599388 18.7303 0.985605C19.8883 1.36123 20.8894 2.11915 21.5746 3.1389C22.3204 4.27076 22.7001 5.61065 22.6608 6.97197C22.691 8.15994 22.4029 9.33393 21.8273 10.3686C21.2749 11.3277 20.4927 12.1294 19.5534 12.6991C18.7637 13.1415 17.9115 13.4573 17.0268 13.6355C17.6887 13.8335 18.3194 14.1266 18.8996 14.5058C19.3308 14.8699 19.7189 15.2836 20.0561 15.7386C20.4354 16.1908 20.7712 16.6789 21.0589 17.1961L24.5439 24.074H16.4095L12.565 16.8337C12.0771 15.8973 11.6429 15.2889 11.2627 15.0085C10.7445 14.6437 10.1271 14.4523 9.49668 14.4609H8.85593V24.074H1.63314ZM8.85593 9.99028H11.8982C12.542 9.94146 13.1802 9.83344 13.8048 9.66755C14.2716 9.5766 14.6879 9.3114 14.9717 8.92422C15.2719 8.53311 15.4317 8.04976 15.4249 7.55394C15.4445 7.22477 15.3902 6.89539 15.2661 6.59065C15.1421 6.28591 14.9514 6.01378 14.7087 5.7948C14.2329 5.38566 13.3377 5.18109 12.0232 5.18109H8.85593V9.99028ZM0 44.3266L6.84772 43.8927C6.99705 45.0232 7.2992 45.8838 7.75415 46.4746C8.48867 47.4322 9.55051 47.911 10.9397 47.911C11.9659 47.911 12.7577 47.6658 13.3151 47.1756C13.5704 46.9728 13.7778 46.7145 13.922 46.4197C14.0662 46.1249 14.1437 45.8011 14.1486 45.472C14.1441 45.1565 14.0718 44.8459 13.9368 44.5617C13.8019 44.2775 13.6075 44.0266 13.3672 43.8266C12.8463 43.3434 11.6178 42.8866 9.68161 42.4563C6.52473 41.7333 4.27342 40.7757 2.92767 39.5835C2.27288 39.0258 1.75005 38.3255 1.39791 37.5347C1.04577 36.7439 0.873344 35.8827 0.893407 35.015C0.899172 33.7895 1.26166 32.593 1.93528 31.5761C2.70543 30.4304 3.79331 29.5428 5.0609 29.026C6.45007 28.407 8.36017 28.0975 10.7912 28.0975C13.7675 28.0975 16.037 28.6601 17.5999 29.7852C19.1627 30.9104 20.0925 32.6986 20.3895 35.1499L13.6173 35.5547C13.4436 34.4965 13.0651 33.7215 12.4816 33.2294C11.8982 32.7374 11.1003 32.4958 10.0879 32.5046C9.25271 32.5046 8.62324 32.681 8.19955 33.0337C8.00024 33.1893 7.83914 33.3898 7.72887 33.6192C7.61861 33.8487 7.56218 34.101 7.564 34.3563C7.56994 34.5549 7.61986 34.7496 7.71004 34.9259C7.80023 35.1023 7.92837 35.2557 8.08494 35.3748C8.42355 35.6869 9.2284 35.977 10.4995 36.2451C13.6459 36.9329 15.9033 37.6295 17.2717 38.3349C18.64 39.0403 19.6298 39.9142 20.241 40.9564C20.8644 42.0139 21.1863 43.2264 21.1709 44.4588C21.1787 45.9512 20.7479 47.412 19.9337 48.6543C19.0865 49.9498 17.8813 50.9621 16.4694 51.5642C14.9848 52.2255 13.1146 52.5562 10.8589 52.5562C6.89807 52.5562 4.15447 51.782 2.62813 50.2336C1.10178 48.6852 0.225739 46.7162 0 44.3266ZM42.4564 42.4722L48.7649 44.4086C48.416 46.0339 47.7335 47.5663 46.7619 48.9056C45.8766 50.089 44.7121 51.027 43.3758 51.6329C42.0249 52.2449 40.3058 52.5509 38.2185 52.5509C35.6868 52.5509 33.6187 52.1779 32.0142 51.4319C30.4097 50.6859 29.0205 49.3712 27.8467 47.4877C26.6798 45.606 26.0972 43.1979 26.0989 40.2634C26.0989 36.3518 27.1235 33.3441 29.1725 31.2402C31.2215 29.1362 34.1214 28.0852 37.8721 28.0869C40.8085 28.0869 43.1153 28.6901 44.7928 29.8963C46.4702 31.1026 47.717 32.9543 48.5331 35.4515L42.1777 36.8879C42.0284 36.3249 41.7929 35.7893 41.4796 35.3007C41.0947 34.7579 40.5886 34.3155 40.0028 34.0098C39.3956 33.7026 38.7249 33.5475 38.0466 33.5575C36.4161 33.5575 35.1667 34.2241 34.2985 35.5573C33.6386 36.5467 33.3096 38.0995 33.3113 40.2157C33.3113 42.8364 33.7038 44.6334 34.4886 45.6069C35.2735 46.5804 36.3753 47.0662 37.794 47.0645C39.1693 47.0645 40.2111 46.6721 40.9196 45.8873C41.6281 45.1025 42.1403 43.9642 42.4564 42.4722ZM54.3103 28.497H61.507V36.7715H69.3732V28.497H76.6012V52.1541H69.3732V42.5912H61.507V52.162H54.3103V28.497ZM81.0812 40.3401C81.0812 36.4814 82.1405 33.4746 84.2589 31.3195C86.3774 29.1645 89.3294 28.0887 93.1149 28.0922C96.9906 28.0922 99.9774 29.1504 102.075 31.2666C104.173 33.3829 105.224 36.343 105.229 40.147C105.229 42.914 104.771 45.1819 103.854 46.9507C102.962 48.6963 101.579 50.1335 99.8819 51.0801C98.1454 52.0641 95.987 52.5562 93.4066 52.5562C90.7811 52.5562 88.6105 52.1311 86.8949 51.2811C85.1323 50.394 83.6737 48.9882 82.7092 47.247C81.6221 45.4094 81.0795 43.1071 81.0812 40.3401ZM88.278 40.3745C88.278 42.7641 88.7121 44.48 89.5803 45.5223C90.4486 46.5645 91.638 47.0856 93.1487 47.0856C94.6959 47.0856 95.8932 46.5751 96.7406 45.554C97.588 44.5329 98.0117 42.6988 98.0117 40.0517C98.0117 37.8244 97.5689 36.1966 96.6833 35.1685C95.7977 34.1403 94.5978 33.6271 93.0836 33.6289C92.4253 33.6048 91.7701 33.7323 91.167 34.0016C90.564 34.271 90.0287 34.6753 89.6012 35.1843C88.7208 36.2425 88.2797 37.9725 88.278 40.3745Z" fill="#BCBCBC"/>
<path d="M102.177 40.3387C102.177 36.48 103.236 33.4732 105.354 31.3181C107.473 29.1631 110.425 28.0873 114.21 28.0908C118.089 28.0908 121.077 29.149 123.173 31.2652C125.269 33.3815 126.317 36.3425 126.317 40.1482C126.317 42.9152 125.859 45.1831 124.944 46.952C124.051 48.697 122.669 50.134 120.972 51.0813C119.235 52.0654 117.077 52.5574 114.497 52.5574C111.869 52.5574 109.699 52.1324 107.985 51.2824C106.222 50.3946 104.763 48.989 103.797 47.2483C102.717 45.4089 102.177 43.1057 102.177 40.3387ZM109.376 40.3731C109.376 42.7627 109.81 44.4786 110.678 45.5209C111.546 46.5631 112.738 47.0851 114.252 47.0869C115.799 47.0869 116.996 46.5763 117.844 45.5552C118.691 44.5342 119.115 42.7001 119.115 40.053C119.115 37.8256 118.673 36.1979 117.789 35.1697C116.905 34.1416 115.705 33.6284 114.189 33.6301C113.53 33.6044 112.873 33.7307 112.269 33.9996C111.664 34.2686 111.128 34.6731 110.699 35.1829C109.815 36.2411 109.374 37.9711 109.376 40.3731Z" fill="#BCBCBC"/>
<path d="M125.567 28.4956H132.766V46.3277H144V52.1474H125.567V28.4956Z" fill="#BCBCBC"/>
</svg>
