<svg width="144" height="62" viewBox="0 0 144 62" fill="none" xmlns="http://www.w3.org/2000/svg">
<path d="M95.2744 12.1502V24.0411C95.2744 26.645 94.5508 28.6393 93.1039 30.0237C91.6568 31.4246 89.6589 32.125 87.1103 32.125C85.6467 32.125 84.3066 31.919 83.0899 31.5069C81.8729 31.1114 80.837 30.5428 79.982 29.8012L81.5359 26.8346C83.098 28.1036 84.9232 28.7381 87.0116 28.7381C88.4585 28.7381 89.5274 28.3755 90.2181 27.6504C90.925 26.9088 91.2787 25.7716 91.2787 24.2389V23.1759C90.1276 24.5932 88.4997 25.3019 86.395 25.3019C84.2079 25.3019 82.5226 24.6839 81.3386 23.4478C80.171 22.1952 79.5874 20.3989 79.5874 18.0586V12.1502H83.5832V17.8113C83.5832 19.1628 83.9038 20.1846 84.5451 20.8768C85.1864 21.569 86.0907 21.9151 87.2582 21.9151C88.4915 21.9151 89.4698 21.5524 90.1934 20.8273C90.9169 20.1022 91.2787 19.0062 91.2787 17.5394V12.1502H95.2744ZM113.333 27.9718C112.511 28.5322 111.475 28.9688 110.225 29.282C108.992 29.5952 107.676 29.7517 106.279 29.7517C104.536 29.7517 103.056 29.5374 101.839 29.109C100.622 28.664 99.7015 28.0541 99.0767 27.2796C98.4517 26.4885 98.1394 25.5904 98.1394 24.585C98.1394 23.6621 98.3942 22.8463 98.904 22.1376C99.4137 21.4288 100.113 20.9015 101.001 20.5554C100.326 20.1928 99.8001 19.6983 99.422 19.0721C99.0602 18.4459 98.8794 17.7454 98.8794 16.9708C98.8794 16.0314 99.167 15.1744 99.7426 14.3998C100.318 13.6253 101.19 13.0072 102.357 12.5457C103.525 12.0842 104.955 11.8535 106.649 11.8535C107.767 11.8535 108.86 11.9689 109.929 12.1996C110.998 12.4139 111.927 12.7106 112.716 13.0896L111.607 16.155C110.094 15.4463 108.49 15.092 106.797 15.092C105.514 15.092 104.544 15.2898 103.886 15.6853C103.245 16.0643 102.924 16.5835 102.924 17.2428C102.924 17.8526 103.138 18.3223 103.566 18.6519C104.01 18.9651 104.676 19.1216 105.564 19.1216H110.275V22.2859H105.317C104.314 22.2859 103.541 22.4589 102.998 22.805C102.456 23.1511 102.184 23.6538 102.184 24.313C102.184 25.0052 102.53 25.5491 103.22 25.9446C103.927 26.3237 105.004 26.5132 106.452 26.5132C107.471 26.5132 108.49 26.3814 109.51 26.1177C110.529 25.8376 111.393 25.4502 112.1 24.9558L113.333 27.9718ZM135.384 11.8535C137.423 11.8535 139.009 12.455 140.144 13.6582C141.279 14.8448 141.846 16.5671 141.846 18.8249V29.4551H137.85V18.9485C137.85 17.729 137.53 16.8143 136.888 16.2045C136.264 15.5782 135.433 15.2651 134.397 15.2651C133.263 15.2651 132.358 15.5946 131.684 16.2539C131.01 16.8967 130.673 17.8773 130.673 19.1957V29.4551H126.677V18.9485C126.677 17.729 126.381 16.8143 125.789 16.2045C125.197 15.5782 124.391 15.2651 123.372 15.2651C122.253 15.2651 121.357 15.5946 120.683 16.2539C120.009 16.8967 119.672 17.8773 119.672 19.1957V29.4551H115.676V12.1502H119.548V14.2762C120.075 13.5017 120.773 12.9083 121.645 12.4963C122.516 12.0678 123.52 11.8535 124.654 11.8535C125.838 11.8535 126.874 12.076 127.762 12.521C128.65 12.9494 129.333 13.5758 129.809 14.3998C130.401 13.5758 131.174 12.9494 132.128 12.521C133.098 12.076 134.183 11.8535 135.384 11.8535ZM79.3469 36.5624H85.2296C86.6355 36.5624 87.8749 36.8344 88.9478 37.3782C90.0331 37.9097 90.8717 38.6637 91.4637 39.6402C92.0679 40.6167 92.3701 41.7539 92.3701 43.0518C92.3701 44.3496 92.0679 45.4868 91.4637 46.4633C90.8717 47.4398 90.0331 48.2 88.9478 48.7438C87.8749 49.2753 86.6355 49.5411 85.2296 49.5411H79.3469V36.5624ZM85.0816 47.0751C86.3765 47.0751 87.4062 46.7167 88.1709 45.9998C88.9478 45.2705 89.3363 44.2878 89.3363 43.0518C89.3363 41.8157 88.9478 40.8392 88.1709 40.1223C87.4062 39.393 86.3765 39.0284 85.0816 39.0284H82.3437V47.0751H85.0816ZM94.4265 39.5661H97.3124V49.5411H94.4265V39.5661ZM95.8695 38.1755C95.3392 38.1755 94.9075 38.021 94.5745 37.712C94.2416 37.403 94.0751 37.0198 94.0751 36.5624C94.0751 36.1051 94.2416 35.7219 94.5745 35.4129C94.9075 35.1039 95.3392 34.9494 95.8695 34.9494C96.3998 34.9494 96.8314 35.0977 97.1644 35.3944C97.4973 35.691 97.6638 36.0618 97.6638 36.5068C97.6638 36.9889 97.4973 37.3906 97.1644 37.712C96.8314 38.021 96.3998 38.1755 95.8695 38.1755ZM110.258 39.5661V47.8724C110.258 49.7018 109.783 51.0615 108.833 51.9514C107.884 52.8414 106.496 53.2864 104.671 53.2864C103.709 53.2864 102.796 53.1689 101.933 52.9341C101.07 52.6992 100.354 52.3593 99.7872 51.9143L100.934 49.8378C101.353 50.1839 101.884 50.4558 102.525 50.6536C103.166 50.8637 103.808 50.9688 104.449 50.9688C105.448 50.9688 106.182 50.7401 106.65 50.2827C107.131 49.8378 107.372 49.1579 107.372 48.2432V47.8168C106.619 48.645 105.571 49.059 104.227 49.059C103.314 49.059 102.476 48.8613 101.711 48.4657C100.959 48.0578 100.361 47.4892 99.9167 46.76C99.4727 46.0307 99.2507 45.1902 99.2507 44.2384C99.2507 43.2866 99.4727 42.4461 99.9167 41.7168C100.361 40.9875 100.959 40.4251 101.711 40.0296C102.476 39.6217 103.314 39.4177 104.227 39.4177C105.67 39.4177 106.767 39.8936 107.52 40.8454V39.5661H110.258ZM104.8 46.6858C105.565 46.6858 106.188 46.4633 106.669 46.0183C107.162 45.561 107.409 44.9677 107.409 44.2384C107.409 43.5091 107.162 42.922 106.669 42.477C106.188 42.0197 105.565 41.791 104.8 41.791C104.036 41.791 103.407 42.0197 102.913 42.477C102.42 42.922 102.174 43.5091 102.174 44.2384C102.174 44.9677 102.42 45.561 102.913 46.0183C103.407 46.4633 104.036 46.6858 104.8 46.6858ZM112.943 39.5661H115.829V49.5411H112.943V39.5661ZM114.386 38.1755C113.856 38.1755 113.424 38.021 113.091 37.712C112.758 37.403 112.592 37.0198 112.592 36.5624C112.592 36.1051 112.758 35.7219 113.091 35.4129C113.424 35.1039 113.856 34.9494 114.386 34.9494C114.917 34.9494 115.348 35.0977 115.681 35.3944C116.014 35.691 116.181 36.0618 116.181 36.5068C116.181 36.9889 116.014 37.3906 115.681 37.712C115.348 38.021 114.917 38.1755 114.386 38.1755ZM124.502 49.059C124.218 49.2692 123.867 49.4299 123.447 49.5411C123.04 49.64 122.615 49.6894 122.17 49.6894C120.974 49.6894 120.055 49.3866 119.414 48.7809C118.773 48.1752 118.452 47.2853 118.452 46.111V37.3597H121.338V39.7886H123.799V42.0135H121.338V46.0739C121.338 46.4942 121.443 46.8218 121.652 47.0566C121.862 47.2791 122.164 47.3904 122.559 47.3904C123.003 47.3904 123.398 47.2667 123.743 47.0195L124.502 49.059ZM135.925 39.5661V49.5411H133.168V48.3916C132.453 49.2568 131.417 49.6894 130.061 49.6894C129.123 49.6894 128.272 49.4793 127.508 49.059C126.756 48.6388 126.164 48.0393 125.732 47.2606C125.3 46.4818 125.084 45.5795 125.084 44.5536C125.084 43.5276 125.3 42.6253 125.732 41.8466C126.164 41.0679 126.756 40.4684 127.508 40.0481C128.272 39.6279 129.123 39.4177 130.061 39.4177C131.331 39.4177 132.324 39.8195 133.039 40.6229V39.5661H135.925ZM130.56 47.3162C131.288 47.3162 131.892 47.069 132.373 46.5745C132.854 46.0678 133.094 45.3941 133.094 44.5536C133.094 43.7131 132.854 43.0456 132.373 42.5512C131.892 42.0444 131.288 41.791 130.56 41.791C129.82 41.791 129.21 42.0444 128.729 42.5512C128.248 43.0456 128.007 43.7131 128.007 44.5536C128.007 45.3941 128.248 46.0678 128.729 46.5745C129.21 47.069 129.82 47.3162 130.56 47.3162ZM142.167 49.6894C141.044 49.6894 140.169 49.3928 139.54 48.7995C138.911 48.1938 138.596 47.3409 138.596 46.2408V35.7837H141.482V46.0739C141.482 46.4942 141.587 46.8218 141.797 47.0566C142.019 47.2791 142.327 47.3904 142.722 47.3904C142.87 47.3904 143.018 47.3718 143.166 47.3347C143.326 47.2976 143.449 47.2544 143.536 47.2049L143.665 49.4484C143.184 49.6091 142.685 49.6894 142.167 49.6894Z" fill="#BCBCBC"/>
<path d="M18.2205 17.1716C18.2625 17.2218 18.2998 17.2629 18.3418 17.3131C18.5941 17.61 18.865 17.9341 19.1592 18.2812C19.304 18.4547 19.4582 18.6328 19.6123 18.8154C20.3923 19.7332 21.2751 20.7743 22.2046 21.8611C22.5736 22.2948 22.9519 22.7378 23.3303 23.1807C23.7086 23.6237 24.0916 24.0711 24.4699 24.514C24.4933 24.5414 24.5166 24.5689 24.54 24.5962C24.7127 24.7971 24.881 24.998 25.0537 25.1944C25.0817 25.2264 25.1098 25.2629 25.1425 25.2949C25.2779 25.4501 25.4087 25.6054 25.5395 25.7606C25.6236 25.861 25.7076 25.957 25.7917 26.0574C25.8151 26.0849 25.8384 26.1122 25.8618 26.1396C25.9131 26.2035 25.9693 26.2629 26.0206 26.3269C26.086 26.4044 26.1513 26.4821 26.2168 26.5597C26.2447 26.5963 26.2775 26.6282 26.3055 26.6647C26.3849 26.756 26.4643 26.8519 26.5438 26.9433C26.5998 27.0071 26.6511 27.0711 26.7072 27.135C26.7726 27.2127 26.838 27.2903 26.9034 27.3679C26.9594 27.4364 27.0201 27.5004 27.0762 27.5688C27.1042 27.6008 27.1323 27.6373 27.1649 27.6693C27.2537 27.7743 27.3424 27.8793 27.4312 27.9798C27.4592 28.0117 27.4872 28.0438 27.5152 28.0757C27.5666 28.1396 27.6226 28.199 27.674 28.2583C27.7301 28.3222 27.7815 28.3862 27.8375 28.4501C27.8655 28.482 27.8889 28.5095 27.9169 28.5414C28.2439 28.9204 28.5475 29.2812 28.8371 29.6145C28.8511 29.6281 28.865 29.6464 28.8791 29.6602C28.9678 29.7606 29.0472 29.8565 29.1313 29.9524C29.178 30.0072 29.2247 30.062 29.2667 30.1122C29.2854 30.135 29.3089 30.1625 29.3275 30.1853C29.4676 30.3451 29.5937 30.4958 29.7199 30.6419C29.874 30.82 30.0188 30.9889 30.1449 31.135C30.1823 31.1807 30.215 31.2173 30.2476 31.2584L30.2523 31.2629C30.3878 31.4227 30.5092 31.5642 30.6073 31.6784C30.6073 31.6784 30.6073 31.6784 30.6119 31.683C30.6587 31.7377 30.7054 31.788 30.7427 31.8337C30.7521 31.8428 30.7614 31.8473 30.7708 31.8565C30.8222 31.893 30.9062 31.8976 30.9576 31.8565C30.9669 31.8473 30.9763 31.8428 30.9856 31.8337C31.0183 31.7971 31.0557 31.7515 31.0977 31.7058C31.1257 31.6692 31.1585 31.6328 31.1912 31.5962C31.2659 31.5095 31.3499 31.4136 31.4387 31.3086C31.4714 31.272 31.4994 31.2401 31.5275 31.2035C31.5367 31.1944 31.5415 31.1852 31.5508 31.1761C31.5975 31.1213 31.6488 31.062 31.7002 31.0026C31.7002 30.9981 31.7049 30.9981 31.7049 30.9981C31.747 30.9478 31.7936 30.893 31.8404 30.8382C31.873 30.7972 31.9105 30.7561 31.9478 30.7104C32.0786 30.5552 32.2187 30.3953 32.3681 30.2172C32.3868 30.1944 32.4055 30.1715 32.4289 30.1487C32.4896 30.0757 32.5597 29.998 32.625 29.9204C32.6858 29.852 32.7465 29.7788 32.8072 29.7058C33.0175 29.4593 33.2416 29.199 33.4751 28.925C33.5219 28.8747 33.5639 28.82 33.6106 28.7698C33.6246 28.7515 33.6432 28.7332 33.6573 28.7149C33.7227 28.6374 33.7928 28.5597 33.8581 28.4775C33.9282 28.3953 33.9983 28.3131 34.073 28.2264C34.115 28.1762 34.157 28.1304 34.1991 28.0802C34.2178 28.0574 34.2365 28.0391 34.2552 28.0163C34.3532 27.8976 34.4559 27.7788 34.5587 27.6601C34.5868 27.6282 34.6101 27.6008 34.6381 27.5688C34.6708 27.5323 34.7036 27.4958 34.7315 27.4592C34.9838 27.167 35.2407 26.8656 35.5022 26.5551C35.5629 26.4821 35.6284 26.409 35.689 26.336C35.6984 26.3269 35.7077 26.3131 35.7171 26.3039C35.7965 26.2081 35.8806 26.1122 35.9646 26.0163C36.0347 25.9387 36.1001 25.8565 36.1701 25.7789C36.3009 25.6282 36.4318 25.473 36.5626 25.3177C36.5999 25.2721 36.6373 25.2264 36.6793 25.1807C36.8474 24.9844 37.0156 24.788 37.1837 24.5917C37.2071 24.5689 37.2258 24.5414 37.2491 24.5186C37.6274 24.0757 38.0058 23.6282 38.3888 23.1853C38.7671 22.7424 39.1455 22.2995 39.5145 21.8657C40.4393 20.7789 41.3267 19.7378 42.1067 18.82C42.2608 18.6373 42.415 18.4592 42.5598 18.2857C42.8541 17.9388 43.1249 17.6145 43.3772 17.3177C43.4192 17.2675 43.4519 17.2264 43.4939 17.1807C40.159 14.2127 35.7264 12.3999 30.8642 12.3999C25.9879 12.3999 21.5553 14.2081 18.2205 17.1716Z" fill="#BCBCBC"/>
<path d="M36.559 39.7171C36.292 39.4711 35.8705 39.5421 35.6878 39.859L32.8305 44.8739L32.1231 46.1087C31.9919 46.3357 31.753 46.4777 31.4908 46.4777H31.1535H30.8256H30.8162C30.5539 46.4777 30.3103 46.3357 30.1791 46.1039L30.1745 46.0992L26.6144 39.8495C26.4364 39.5326 26.0102 39.4663 25.7432 39.7077L23.0872 42.1015L19.396 45.4322C22.614 48.0389 26.6988 49.6001 31.1487 49.6001C35.5988 49.6001 39.6835 48.0389 42.9062 45.4274L41.4869 44.1453L36.559 39.7171Z" fill="#BCBCBC"/>
<path d="M16.3245 29.2129C15.4919 27.7319 14.5146 25.9924 13.6911 24.521C13.6323 24.4156 13.5734 24.3102 13.5146 24.2095C12.759 26.323 12.3428 28.6138 12.3428 31.0052C12.3428 33.6219 12.8359 36.1092 13.7318 38.3809L14.4241 37.4847L18.1434 32.6683C18.148 32.6634 18.1796 32.6251 18.2203 32.5676C18.2158 32.5628 18.2113 32.558 18.2068 32.5484C18.0936 32.3615 17.3063 30.9621 16.3245 29.2129Z" fill="#BCBCBC"/>
<path d="M30.8571 0C13.8156 0 0 13.8785 0 31C0 48.1215 13.8156 62 30.8571 62C47.8987 62 61.7143 48.1215 61.7143 31C61.7143 13.8785 47.8987 0 30.8571 0ZM54.9818 47.346H54.9678H44.3221C44.3081 47.346 44.2894 47.3413 44.2754 47.3366C44.2706 47.3413 44.2706 47.3413 44.266 47.346L44.2613 47.3413C40.6146 50.3868 35.9299 52.2197 30.8197 52.2197C25.7097 52.2197 21.0249 50.3868 17.3829 47.3413H17.3782C17.3735 47.3366 17.3735 47.3366 17.3689 47.3319C17.3548 47.3366 17.3408 47.3413 17.3221 47.3413H6.67636H6.66234C6.45195 47.3413 6.33974 47.0969 6.47065 46.9372L11.88 40.2868C10.5382 37.5045 9.78546 34.3838 9.78546 31.0846C9.78546 19.415 19.2016 9.95422 30.8197 9.95422C42.4379 9.95422 51.854 19.415 51.854 31.0846C51.854 34.3792 51.1013 37.4999 49.7641 40.2822L51.8167 42.8013L55.1735 46.9277L55.1829 46.9372C55.3044 47.1016 55.1922 47.346 54.9818 47.346Z" fill="#BCBCBC"/>
<path d="M48.029 24.5117C47.1991 25.9846 46.224 27.726 45.3896 29.2084C44.4009 30.9642 43.6163 32.3603 43.5075 32.5521C43.503 32.5569 43.4984 32.5617 43.4939 32.5665L43.5618 32.6577C43.5664 32.6624 43.5664 32.6673 43.5709 32.672L47.9837 38.3809C48.8771 36.107 49.3714 33.6172 49.3714 31.0026C49.3714 28.6087 48.9542 26.3203 48.2013 24.2095C48.1424 24.3103 48.088 24.411 48.029 24.5117Z" fill="#BCBCBC"/>
</svg>
